<?xml version="1.0" standalone="no"?>
<!DOCTYPE svg PUBLIC "-//W3C//DTD SVG 1.1//EN" "http://www.w3.org/Graphics/SVG/1.1/DTD/svg11.dtd" >
<svg xmlns="http://www.w3.org/2000/svg" xmlns:xlink="http://www.w3.org/1999/xlink" version="1.1" viewBox="0 0 256 256">
  <g transform="matrix(1 0 0 -1 0 204)">
   <path fill="currentColor"
d="M140 100q-1 1 0 1h3l6 -4q0 -1 1 -2q2 -2 0 -3q-5 -4 -8 -8h3q6 1 13 4q2 4 7 5q6 -3 10 -6q2 -2 1 -4q-1 -3 -4 -4q-3 -2 -4 -6q-3 -5 -10 -18q-5 -8 -9 -15q10 -20 23 -35q5 -5 14 -5q31 -1 47 -11q3 -1 -1 -2q-4 0 -16 2q-14 3 -29 4q-13 1 -14 5q-9 8 -18 21
q-7 10 -10 15q-20 -30 -33 -33q-5 -1 -1 2q16 12 30 36q-5 8 -14 22l-3 6q-11 -5 -12 -6q-3 0 0 2q1 1 5 4l5 5q-2 4 -4 7q-2 1 1 1q7 2 8 -2q3 2 3 4q-3 1 -2 2l4 1q8 10 8 15zM71 170q8 -8 11 -15v-1q0 -2 -4 -8q-2 -3 -6 -11q-2 -4 -3 -5q0 -5 -1 -9q-3 -20 -5 -67
q-1 -49 5 -48q10 -9 10 -15v-2q-1 -1 -3 -1q-7 -1 -10 6q-3 4 -5 6q-5 7 -7 9q-4 1 -3 7q-3 3 9 4q-1 6 -1 19v22v22q1 14 1 21t-1 9q-25 -36 -37 -47q-2 -2 -3 -2q-1 1 0 3q27 37 40 68q2 6 4 10q9 18 6 24l-1 2q1 0 4 -1zM145 200q4 -7 6 -9q3 -2 0 -5q-17 -19 -30 -38
q2 0 7 2q17 6 22 9q8 3 17 5q-1 2 -5 7q-1 2 1 2q13 -2 26 -12q1 -1 0 -1q5 -2 2 -8q-2 -3 -4 -2q-5 -2 -17 10q-40 -14 -56 -22q-6 -4 -14 -5q-4 -3 -3 5q-1 3 7 6q7 2 8 5q9 11 27 37q3 5 3 13v2q1 0 3 -1zM159 78q0 1 -1 2h-3q-9 -2 -17 -1q-5 -4 -7 -8q2 -8 11 -22l3 -3
q8 14 14 32zM153 136q-3 2 1 2q14 -7 24 -8q10 -2 16 -13q0 -4 -6 -4q-3 -1 -5 1q-5 4 -16 8h-3q-1 1 2 3q1 0 1 1l-3 2q-7 4 -11 8zM114 130q-2 2 2 1q2 -3 10 -7q1 -1 1 -4q0 -4 -2 -8l-1 -1l-5 -5q-2 -4 -3 -5q-5 -9 -14 -3q-2 0 0 2q9 3 13 15v3q1 3 1 5q-2 2 -2 7z" />
  </g>

</svg>
