<?xml version="1.0" standalone="no"?>
<!DOCTYPE svg PUBLIC "-//W3C//DTD SVG 1.1//EN" "http://www.w3.org/Graphics/SVG/1.1/DTD/svg11.dtd" >
<svg xmlns="http://www.w3.org/2000/svg" xmlns:xlink="http://www.w3.org/1999/xlink" version="1.1" viewBox="0 0 256 256">
  <g transform="matrix(1 0 0 -1 0 204)">
   <path fill="currentColor"
d="M94 212q6 -6 11 -12q1 -3 -1 -4q-5 1 -5 -9q-2 -6 -3 -12v-4q1 0 1 1q5 2 4 5q0 2 2 2q9 -4 17 -5q0 -3 -2 -5q-1 0 -3 -1h-7q-1 -1 -2 -1q-3 0 -11 -4q-2 -11 -3 -26v-10q8 2 21 4q2 0 4 1q2 3 5 2q4 -1 10 -5h2q1 -4 -1 -6q-7 2 -10 -3q-11 -8 -22 -15q-4 -3 2 -1
q6 -1 11 -2l-4 -3q-6 0 -18 -3v-11q2 -3 0 -6q-1 -1 -1 -2q0 -44 4 -84q-1 -4 2 -11q-1 -1 -2 -4q-2 3 -5 5q-3 3 -4 5l-1 1q-8 11 -9 20q-1 4 1 1q0 -1 1 -3q4 -6 8 -7q3 -1 3 0q-3 57 -2 74q-36 -40 -59 -43q-6 -1 -2 1q30 13 60 50q1 9 1 12q-2 -1 -3 -1q-6 -3 -10 -2
q-3 0 -2 -3q-1 -3 -3 -2q-5 1 -7 1q-5 1 -4 3q1 1 -12 15q-6 4 -1 9q-1 0 0 1t1 2q13 25 41 46q-4 0 -7 -1q-14 -3 -25 0q-3 1 0 2q16 -2 34 5v8q1 9 3 17q1 8 1 16q-1 3 1 2zM115 129q-13 -3 -23 -7q0 -4 -1 -11v-7q11 5 27 21q1 1 0 3q-1 1 -3 1zM46 115q-1 -3 2 -4
q3 -5 7 -9q5 -4 7 -6q5 -6 11 -4q6 1 13 6l1 1q-2 -1 -2 0t2 3v19q-7 -3 -12 -5q-2 -2 -6 0q-3 0 -1 2q6 2 20 7q-1 20 1 36q-29 -19 -43 -46zM196 131q0 -1 1 -3q2 -2 4 -2l3 -3q1 -1 3 -1q2 -5 1 -8q-6 -1 -6 -5q-2 -15 -2 -26q1 -12 1 -24q-1 -9 1 -14q2 -13 -4 -12
q-4 -1 -4 3l-6 6q-3 1 -6 5q-2 1 1 1q6 -2 10 -1q3 -1 3 3v15v17q-1 1 -1 4q-2 23 -1 35q0 7 -3 8t-12 -3q-12 -5 -16 -3q-3 1 0 2q2 0 5 2q2 1 3 2q21 8 25 2zM182 79l-2 -2q-3 -4 -7 -4q-5 -2 -9 -5q-2 -3 -1 0v1q-1 1 -3 1q-4 0 -2 2q4 1 7 4q6 4 15 6q2 -1 2 -3zM95 80
q-1 1 0 1l3 -1q7 -6 18 -11q10 -6 8 -8l-1 -1q0 -4 -5 -1q-3 -2 -23 21zM178 30q17 -14 28 -22q7 -5 10 -7q11 -6 8 -13q-3 -4 -7 -3q-7 3 -10 9q-17 21 -30 34q-2 3 1 2zM170 200q3 -2 5 -5h1q1 -3 -1 -5q-3 -6 -19 -28q-2 -2 0 -1q12 4 35 11q7 2 9 6q0 3 4 3q1 0 3 -1
q1 -1 2 -1q1 -1 3 -2h3q3 -2 3 -3l-1 -2q-1 -1 -1 -2t-6 -1q-5 0 -13 -6q-4 -4 -11 -9q-25 -20 -31 -27q-6 -4 -2 1q10 12 33 35l2 2q0 1 -2 1q-18 -5 -28 -11q-9 -3 -15 -8q-6 -6 -12 -9q-1 -2 -2 -1q-2 0 -1 3l1 1q0 1 1 3q0 1 1 3q-1 1 1 2q2 -2 6 2q15 11 28 38
q3 5 3 11q-1 1 1 0zM154 117q4 0 0 -9q-3 -5 -2 -17q13 3 15 7l3 3q9 3 12 3q1 0 2 -1q2 -5 -3 -5q-7 -3 -11 -11q-2 -3 -3 -2t0 4q0 2 -1 2t-4 -1q-1 0 -3 -1q-6 -1 -7 -1q-1 -26 2 -38q0 -1 1 -1q3 1 9 4q6 2 9 4q1 2 6 2h6v-3q-7 -2 -16 -16q-27 -42 -56 -48q-3 -1 0 1
q33 17 59 58q-8 -2 -25 -10q-13 -8 -23 -10q-4 -2 -4 4q-1 1 1 0q0 -1 7 2q13 4 22 9q-2 1 -5 4q-3 2 -4 4q-2 0 -2 1q-1 1 2 3q2 1 2 7q0 11 3 43q1 5 -6 8q-3 1 0 2q1 0 3 -1q3 0 5 1z" />
  </g>

</svg>
